<?xml version="1.0" encoding="utf-8"?>
<!-- Generator: Adobe Illustrator 22.0.1, SVG Export Plug-In . SVG Version: 6.00 Build 0)  -->
<svg version="1.1" id="Layer_1" xmlns="http://www.w3.org/2000/svg" xmlns:xlink="http://www.w3.org/1999/xlink" x="0px" y="0px"
	 viewBox="0 0 1600 1200" style="enable-background:new 0 0 1600 1200;" xml:space="preserve">
<style type="text/css">
	.st0{fill:#0100CF;}
</style>
<g id="XMLID_1334_">
	<g id="XMLID_382_">
		<path id="XMLID_385_" class="st0" d="M1400,591.8c0-31.9-6.2-63-18.4-92.4l-37.4-89.9c-21.9-52.7-54-99.4-95.4-138.8
			c-24.5-23.3-51-44.9-78.7-64.1c-10.9-7.6-25.9-4.9-33.5,6c-7.6,10.9-4.9,25.9,6,33.5c25.7,17.9,50.3,37.9,73,59.5
			c25.5,24.3,47.1,51.7,64.3,82c-43.5,13.4-76.2,51.9-81.1,98.5l-71.2,40.7c-11.5,6.6-15.5,21.3-8.9,32.8
			c4.4,7.8,12.6,12.1,20.9,12.1c4.1,0,8.2-1,11.9-3.2l82.7-47.3c7.5-4.3,12.1-12.3,12.1-20.9v-2.2c0-33,23.7-60.5,55-66.4l35.8,86
			c9.8,23.5,14.8,48.4,14.8,73.9c0,106.2-86.4,192.6-192.6,192.6h-17.2c-26.9,0-48.8-21.9-48.8-48.8s21.9-48.8,48.8-48.8
			c13.3,0,24.1-10.8,24.1-24.1s-10.8-24.1-24.1-24.1c-53.5,0-97,43.5-97,97c0,17.8,4.8,34.5,13.3,48.8H627.5
			c-36.6,0-69.5-15.9-92.3-41.1c0-0.3,0-0.6,0-0.9c0-27.7,22.5-50.2,50.2-50.2h76.1c13.3,0,24.1-10.8,24.1-24.1S674.9,644,661.6,644
			h-76.1c-32.8,0-61.9,16.2-79.8,41c-1.6-8-2.5-16.4-2.5-24.9c0-68.6,55.8-124.3,124.3-124.3h47.3c13.3,0,24.1-10.8,24.1-24.1
			c0-13.3-10.8-24.1-24.1-24.1h-47.3c-83.8,0-153.9,60.2-169.3,139.6h-35.9c-96.1,0-174.2-78.1-174.2-174.2
			c0-72.3,43.5-136,110.8-162.3l23.9-9.3c10.5,10.8,16.4,25.1,16.4,40.3c0,15.4-6,29.9-16.9,40.9c-9.4,9.4-9.4,24.6,0,34
			c4.7,4.7,10.9,7,17,7s12.3-2.4,17-7c9.2-9.2,16.4-19.8,21.6-31.2h127.6c22.8,0,41.3,18.5,41.3,41.3c0,13.3,10.8,24.1,24.1,24.1
			s24.1-10.8,24.1-24.1c0-49.3-40.1-89.4-89.4-89.4H447.2c-0.9-22-8.5-42.8-21.9-60.1c73.4-54.3,158.7-91.6,248-109.2
			c-23.3,33.9-35.9,73.9-35.9,115.9c0,13.3,10.8,24.1,24.1,24.1c13.3,0,24.1-10.8,24.1-24.1c0-41.9,16.3-81.4,46-111l14.8-14.8
			c15-1.1,30.1-1.7,45.2-1.7c66.9,0,133,10.8,196.4,32.2c12.6,4.2,26.2-2.5,30.5-15.1s-2.5-26.2-15.1-30.5
			c-68.3-23-139.6-34.7-211.7-34.7c-144.6,0-287.6,48.3-402.6,136.1l-8.4,6.4l-39.1,15.3c-41.9,16.3-77.4,44.6-102.7,81.7
			C213.4,364.7,200,408,200,453c0,122.6,99.7,222.3,222.3,222.3h33.5c7.7,88,81.8,157.2,171.7,157.2H744l145.6,266.8
			c4.2,7.7,12.3,12.5,21.1,12.5h92.6c7.1,0,13.9-3.2,18.4-8.6s6.5-12.7,5.3-19.7l-20.6-116.3h84c91.1,0,166.1-70,174.1-159
			C1344.6,769.2,1400,686.8,1400,591.8z M925,1063.7L798.8,832.5h69.4v25.2c0,22.5,6.8,44.2,19.7,62.7
			c16.5,23.6,41.5,39.5,69.3,44.8l17.5,98.4H925z M1090.4,919.1H977.7c-20,0-38.8-9.8-50.3-26.2c-7.2-10.4-11.1-22.5-11.1-35.2
			v-25.2h243c18.2,0,36-2.1,53.1-5.9C1197.4,879.9,1148.4,919.1,1090.4,919.1z"/>
		<path id="XMLID_387_" class="st0" d="M1072.8,204.3c3.6,1.9,7.4,2.8,11.2,2.8c8.7,0,17-4.7,21.3-12.9c6.2-11.8,1.6-26.3-10.1-32.5
			l-0.5-0.3c-11.8-6-26.4-1.3-32.4,10.5S1061,198.3,1072.8,204.3z"/>
		<path id="XMLID_390_" class="st0" d="M917.7,228.6c1.1-11.7-6.5-22.5-17.9-25.5c-11.4-3-23.3,2.7-28.1,13.5L744.5,501.8
			c-3.3,7.4-2.6,16.1,1.8,22.9c4.4,6.8,12,11,20.2,11h110.7l-30,126.8c-2.7,11.3,3.1,22.8,13.7,27.5c3.2,1.4,6.5,2.1,9.7,2.1
			c7.7,0,15.2-3.7,19.8-10.4l178-259.1c5.1-7.4,5.6-16.9,1.5-24.8c-4.2-7.9-12.4-12.9-21.3-12.9H903.2L917.7,228.6z M1002.9,433
			l-79.3,115.5l7.4-31.2c1.7-7.2,0-14.7-4.5-20.5c-4.6-5.8-11.5-9.1-18.9-9.1h-104l52.8-118.4l-3.5,37.5c-0.6,6.7,1.6,13.4,6.2,18.4
			c4.6,5,11,7.9,17.8,7.9L1002.9,433L1002.9,433z"/>
		<path id="XMLID_784_" class="st0" d="M764.6,651c-4.5,4.5-7.1,10.7-7.1,17c0,6.3,2.6,12.5,7.1,17s10.7,7.1,17,7.1
			c6.3,0,12.5-2.6,17-7.1s7.1-10.7,7.1-17c0-6.3-2.6-12.5-7.1-17c-4.5-4.5-10.7-7-17-7C775.2,644,769.1,646.5,764.6,651z"/>
	</g>
</g>
</svg>
