<?xml version="1.0" encoding="utf-8"?>
<!-- Generator: Adobe Illustrator 22.0.1, SVG Export Plug-In . SVG Version: 6.00 Build 0)  -->
<svg version="1.1" id="Layer_1" xmlns="http://www.w3.org/2000/svg" xmlns:xlink="http://www.w3.org/1999/xlink" x="0px" y="0px"
	 viewBox="0 0 1600 1200" style="enable-background:new 0 0 1600 1200;" xml:space="preserve">
<style type="text/css">
	.st0{fill:#0100CF;}
</style>
<g id="XMLID_1373_">
	<g id="XMLID_156_">
		<path id="XMLID_157_" class="st0" d="M965.6,248.4C965.6,248.4,965.5,248.4,965.6,248.4c-13,0-23.6,10.4-23.6,23.4
			c0,12.9,10.5,23.5,23.5,23.5c0,0,0.1,0,0.1,0c12.9,0,23.6-10.5,23.6-23.4C989.1,259,978.5,248.5,965.6,248.4z"/>
		<path id="XMLID_185_" class="st0" d="M1203.6,926.5c118.2-78.1,196.4-212.1,196.4-364c0-240.4-195.6-435.9-435.9-435.9
			c-203.9,0-379.5,140.8-424.8,337.5H298.4c-54.3,0-98.4,44.2-98.4,98.4s44.2,98.4,98.4,98.4h240.9
			c21.4,92.5,73.2,176.5,146.9,237.5c12.2,10.1,25,19.5,38.2,28.2l-106.8,106.8c-9.2,9.2-9.2,24,0,33.1c4.6,4.6,10.6,6.9,16.6,6.9
			s12-2.3,16.6-6.9L766.3,951c60.9,30.9,128.7,47.4,197.7,47.4c71.1,0,138.3-17.1,197.7-47.5l115.6,115.6c4.6,4.6,10.6,6.9,16.6,6.9
			s12-2.3,16.6-6.9c9.2-9.2,9.2-24,0-33.1L1203.6,926.5z M683.2,510.9C683.2,510.9,683.2,510.9,683.2,510.9c0.1,0,0.1,0,0.2,0H793
			v103.1H373.4V510.9H683.2z M912.3,562.5l-72.5,36.8v-73.6L912.3,562.5z M974.7,583.4c7.9-4,12.8-12.1,12.8-20.9s-5-16.9-12.8-20.9
			l-127.9-65c27.2-37.1,70.5-59.5,117.3-59.5c80.1,0,145.3,65.2,145.3,145.3s-65.2,145.3-145.3,145.3c-46.6,0-90.1-22.4-117.2-59.5
			L974.7,583.4z M246.9,562.5c0-28.4,23.1-51.6,51.6-51.6h28.1v103.1h-28.1C270,614.1,246.9,590.9,246.9,562.5z M587.6,660.9h78.2
			c42.1,127.7,162.7,215.6,298.3,215.6c173.2,0,314.1-140.9,314.1-314.1c0-135.2-86.1-254.9-214.2-297.9
			c-12.3-4.1-25.6,2.5-29.7,14.8c-4.1,12.3,2.5,25.6,14.8,29.7c109,36.5,182.2,138.4,182.2,253.4c0,147.3-119.9,267.2-267.2,267.2
			c-110.1,0-208.5-68.1-248.4-168.8H799c34.6,57.9,97.4,93.8,165.1,93.8c106,0,192.2-86.2,192.2-192.2S1070,370.3,964.1,370.3
			c-67.9,0-130.4,35.7-165.1,93.8h-83.4c28.5-72.2,87.1-128.7,161.6-154.3c12.2-4.2,18.8-17.5,14.6-29.8
			c-4.2-12.2-17.5-18.8-29.8-14.6C768.6,297.5,696.4,371,665.8,464.1h-78.2c44.2-170,198.2-290.6,376.5-290.6
			c214.5,0,389.1,174.5,389.1,389.1s-174.5,389.1-389.1,389.1C786.7,951.6,631.8,830.6,587.6,660.9z"/>
	</g>
</g>
</svg>
