<?xml version="1.0" encoding="utf-8"?>
<!-- Generator: Adobe Illustrator 22.0.1, SVG Export Plug-In . SVG Version: 6.00 Build 0)  -->
<svg version="1.1" id="Layer_1" xmlns="http://www.w3.org/2000/svg" xmlns:xlink="http://www.w3.org/1999/xlink" x="0px" y="0px"
	 viewBox="0 0 1600 1200" style="enable-background:new 0 0 1600 1200;" xml:space="preserve">
<style type="text/css">
	.st0{fill:#0100CF;}
</style>
<g id="XMLID_2819_">
	<g id="XMLID_1276_">
		<path id="XMLID_1472_" class="st0" d="M830.5,240.5l-10.1-19.1c-4.1-7.7-12-12.5-20.7-12.5s-16.7,4.8-20.7,12.5l-10.1,19.1
			c-52.6,99.6-122.3,187.8-207,262.2c-7,6.1-9.7,15.8-6.9,24.6L635.6,784v85.5h-27c-12.9,0-23.4,10.5-23.4,23.4s10.5,23.4,23.4,23.4
			h27v260.2c0,12.9,10.5,23.4,23.4,23.4h281.3c12.9,0,23.4-10.5,23.4-23.4V916.4h27c12.9,0,23.4-10.5,23.4-23.4
			s-10.5-23.4-23.4-23.4h-27V784l80.6-256.7c2.8-8.9,0.1-18.5-6.9-24.6C952.8,428.4,883.1,340.2,830.5,240.5z M800,525.8
			c12.9,0,23.4,10.5,23.4,23.4s-10.5,23.4-23.4,23.4s-23.4-10.5-23.4-23.4S787.1,525.8,800,525.8z M916.9,1153.1h-65.6v-64.5
			c0-12.9-10.5-23.4-23.4-23.4s-23.4,10.5-23.4,23.4v64.5H682.5V916.4h234.4V1153.1z M682.5,869.5v-65.7h234.4v65.7H682.5z
			 M923.1,757H676.3l-72-229.2c66.9-60.6,124.5-129.7,172-206V483c-27.1,9.8-46.6,35.7-46.6,66.2c0,38.8,31.5,70.3,70.3,70.3
			s70.3-31.5,70.3-70.3c0-30.7-19.7-56.8-47.2-66.4V321.8c47.4,76.3,105,145.4,172,206L923.1,757z"/>
		<path id="XMLID_1518_" class="st0" d="M1204,168.7h121.8c12.9,0,23.4-10.5,23.4-23.4V23.4c0-12.9-10.5-23.4-23.4-23.4H1204
			c-12.9,0-23.4,10.5-23.4,23.4v37.5H881C870.8,25.8,838.4,0,800,0s-70.8,25.8-81,60.9H419.5V23.4C419.5,10.5,409,0,396,0H274.2
			c-12.9,0-23.4,10.5-23.4,23.4v121.8c0,12.9,10.5,23.4,23.4,23.4H396c12.9,0,23.4-10.5,23.4-23.4v-37.5h171.8
			c-141.1,67-245.5,199.9-272.6,358.7c-38.7,7.7-67.9,41.8-67.9,82.7c0,46.5,37.8,84.3,84.3,84.3s84.3-37.8,84.3-84.3
			c0-35.8-22.4-66.4-53.9-78.6C398.1,290,541.2,147.2,721.4,114.8c12.2,31.5,42.9,53.9,78.6,53.9c35.8,0,66.4-22.4,78.6-53.9
			c179.8,32.4,323.4,176.2,355.8,355.8c-31.5,12.2-53.9,42.9-53.9,78.6c0,46.5,37.8,84.3,84.3,84.3c46.5,0,84.3-37.8,84.3-84.3
			c0-40.9-29.2-75.1-67.9-82.7c-16.9-99.2-63.3-189.4-134.8-261.4c-40.4-40.7-86.7-73.4-137.1-97.3h171.2v37.5
			C1180.5,158.2,1191,168.7,1204,168.7z M372.6,121.8h-74.9V46.9h74.9V121.8L372.6,121.8z M335.1,586.7c-20.7,0-37.5-16.8-37.5-37.5
			c0-20.7,16.8-37.5,37.5-37.5s37.5,16.8,37.5,37.5C372.6,569.9,355.8,586.7,335.1,586.7z M1302.3,549.2c0,20.7-16.8,37.5-37.5,37.5
			c-20.7,0-37.5-16.8-37.5-37.5s16.8-37.5,37.5-37.5C1285.5,511.7,1302.3,528.6,1302.3,549.2z M800,121.8
			c-20.7,0-37.5-16.8-37.5-37.5s16.8-37.5,37.5-37.5s37.5,16.8,37.5,37.5S820.7,121.8,800,121.8z M1227.4,46.9h74.9v74.9h-74.9V46.9
			z"/>
		<path id="XMLID_1634_" class="st0" d="M827.8,1024.1c6.2,0,12.2-2.5,16.6-6.9s6.9-10.4,6.9-16.6s-2.5-12.2-6.9-16.6
			c-4.4-4.4-10.4-6.9-16.6-6.9s-12.2,2.5-16.6,6.9s-6.9,10.4-6.9,16.6s2.5,12.2,6.9,16.6S821.7,1024.1,827.8,1024.1z"/>
	</g>
</g>
</svg>
