<?xml version="1.0" encoding="utf-8"?>
<!-- Generator: Adobe Illustrator 22.0.1, SVG Export Plug-In . SVG Version: 6.00 Build 0)  -->
<svg version="1.1" id="Layer_1" xmlns="http://www.w3.org/2000/svg" xmlns:xlink="http://www.w3.org/1999/xlink" x="0px" y="0px"
	 viewBox="0 0 1600 1200" style="enable-background:new 0 0 1600 1200;" xml:space="preserve">
<style type="text/css">
	.st0{fill:#0100CF;}
</style>
<g id="XMLID_821_">
	<g id="XMLID_464_">
		<path id="XMLID_465_" class="st0" d="M435.1,740.6c-6.2,0-12.2,2.5-16.6,6.9s-6.9,10.4-6.9,16.6s2.5,12.2,6.9,16.6
			s10.4,6.9,16.6,6.9s12.2-2.5,16.6-6.9c4.4-4.4,6.9-10.4,6.9-16.6s-2.5-12.2-6.9-16.6C447.4,743.1,441.3,740.6,435.1,740.6z"/>
		<path id="XMLID_468_" class="st0" d="M1376.6,740.6V23.4c0-12.9-10.5-23.4-23.4-23.4H246.9c-12.9,0-23.4,10.5-23.4,23.4v717.2
			c-12.9,0-23.4,10.5-23.4,23.4v131.3c0,12.9,10.5,23.4,23.4,23.4H580l-134.9,246.6c-4,7.3-3.8,16.1,0.4,23.2
			c4.2,7.1,11.9,11.5,20.2,11.5h124.2c8.6,0,16.4-4.7,20.6-12.2L720.3,987v189.6c0,12.9,10.5,23.4,23.4,23.4h112.5
			c12.9,0,23.4-10.5,23.4-23.4V987l109.9,200.8c4.1,7.5,12,12.2,20.6,12.2h124.2c8.3,0,15.9-4.4,20.2-11.5
			c4.2-7.1,4.4-15.9,0.4-23.2L1020,918.8h356.5c12.9,0,23.4-10.5,23.4-23.4V764.1C1400,751.1,1389.5,740.6,1376.6,740.6z
			 M576,1153.1h-70.8l128.3-234.4h70.8L576,1153.1z M832.8,1153.1h-65.6V918.8h65.6V1153.1z M1094.8,1153.1H1024L895.8,918.8h70.8
			L1094.8,1153.1z M1353.1,871.9H246.9v-84.4h83.2c12.9,0,23.4-10.5,23.4-23.4s-10.5-23.4-23.4-23.4h-59.8V46.9h1059.4v693.8H528.1
			c-12.9,0-23.4,10.5-23.4,23.4s10.5,23.4,23.4,23.4h825V871.9z"/>
		<path id="XMLID_474_" class="st0" d="M551.6,534.4c0-49.1-40-89.1-89.1-89.1s-89.1,40-89.1,89.1s40,89.1,89.1,89.1
			S551.6,583.5,551.6,534.4z M462.5,576.6c-23.3,0-42.2-18.9-42.2-42.2s18.9-42.2,42.2-42.2s42.2,18.9,42.2,42.2
			C504.7,557.6,485.8,576.6,462.5,576.6z"/>
		<path id="XMLID_475_" class="st0" d="M1212.5,510.9H743.8c-12.9,0-23.4,10.5-23.4,23.4s10.5,23.4,23.4,23.4h468.8
			c12.9,0,23.4-10.5,23.4-23.4S1225.4,510.9,1212.5,510.9z"/>
		<path id="XMLID_476_" class="st0" d="M643,557.8c6.2,0,12.2-2.5,16.6-6.9c4.4-4.4,6.9-10.4,6.9-16.6s-2.5-12.2-6.9-16.6
			c-4.4-4.4-10.4-6.9-16.6-6.9s-12.2,2.5-16.6,6.9s-6.9,10.4-6.9,16.6s2.5,12.2,6.9,16.6S636.8,557.8,643,557.8z"/>
		<path id="XMLID_479_" class="st0" d="M462.5,360.9c49.1,0,89.1-40,89.1-89.1s-40-89.1-89.1-89.1s-89.1,40-89.1,89.1
			S413.4,360.9,462.5,360.9z M462.5,229.7c23.3,0,42.2,18.9,42.2,42.2s-18.9,42.2-42.2,42.2s-42.2-18.9-42.2-42.2
			S439.2,229.7,462.5,229.7z"/>
		<path id="XMLID_480_" class="st0" d="M643,295.3h569.5c12.9,0,23.4-10.5,23.4-23.4s-10.5-23.4-23.4-23.4H643
			c-12.9,0-23.4,10.5-23.4,23.4S630,295.3,643,295.3z"/>
	</g>
</g>
</svg>
