<?xml version="1.0" encoding="utf-8"?>
<!-- Generator: Adobe Illustrator 22.0.1, SVG Export Plug-In . SVG Version: 6.00 Build 0)  -->
<svg version="1.1" id="Layer_1" xmlns="http://www.w3.org/2000/svg" xmlns:xlink="http://www.w3.org/1999/xlink" x="0px" y="0px"
	 viewBox="0 0 1600 1200" style="enable-background:new 0 0 1600 1200;" xml:space="preserve">
<style type="text/css">
	.st0{fill:#0100CF;}
</style>
<g id="XMLID_1357_">
	<g id="XMLID_267_">
		<path id="XMLID_268_" class="st0" d="M522.7,1059.4c-6.2,0-12.2,2.5-16.6,6.9c-4.4,4.4-6.9,10.4-6.9,16.6s2.5,12.2,6.9,16.6
			c4.4,4.4,10.4,6.9,16.6,6.9s12.2-2.5,16.6-6.9c4.4-4.4,6.9-10.4,6.9-16.6s-2.5-12.2-6.9-16.6
			C534.9,1061.9,528.9,1059.4,522.7,1059.4z"/>
		<path id="XMLID_291_" class="st0" d="M1392.2,784.3l-107.2-96.3l107.2-96.3c6.2-5.6,9-14,7.3-22.2c-1.7-8.2-7.6-14.8-15.4-17.5
			l-366.7-124c-11.7-25.8-28.1-49.6-48.8-70.3c-45-45-104.9-69.8-168.6-69.8c0,0-0.1,0-0.1,0c-96.4,0-179.5,57.5-217.1,140
			L215.9,552.2c-7.9,2.7-13.8,9.3-15.4,17.5s1.1,16.6,7.3,22.2l107.2,96.3l-107.2,96.3c-6.2,5.6-9,14-7.3,22.2s7.6,14.8,15.4,17.5
			l110.6,37.4v163c0,10.1,6.4,19,15.9,22.2l93.4,31.6c2.5,0.8,5,1.2,7.5,1.2c9.8,0,18.9-6.2,22.2-15.9c4.1-12.3-2.4-25.6-14.7-29.7
			l-77.4-26.2V877.2l292.5,98.9c2.5,0.8,5,1.2,7.5,1.2c5.7,0,11.3-2.1,15.7-6l87.5-78.6v251.1l-168.8-57.1
			c-12.3-4.1-25.6,2.4-29.7,14.7c-4.1,12.3,2.4,25.6,14.7,29.7l199.8,67.5c2.4,0.8,5,1.2,7.5,1.2c2.5,0,5.1-0.4,7.5-1.2c0,0,0,0,0,0
			l450-152.1c9.5-3.2,15.9-12.2,15.9-22.2v-163l110.6-37.4c7.9-2.7,13.8-9.3,15.4-17.5C1401.2,798.3,1398.4,789.9,1392.2,784.3z
			 M1013.4,632.8l163.4,55.3l-267,90.3c9.9-28.2,27-54.1,50-74.8C982.2,683.3,1000.2,659.3,1013.4,632.8z M1331.1,583.7l-86.5,77.7
			L1030.1,589c5.5-20.2,8.4-41.2,8.4-62.4c0-14.6-1.3-29-3.9-43.1L1331.1,583.7z M799.9,335C800,335,800,335,799.9,335
			c51.2,0,99.3,19.9,135.5,56.1c18.6,18.6,32.9,40.4,42.4,64.1c0,0.1,0.1,0.2,0.1,0.3c8.9,22.3,13.6,46.3,13.6,71.1
			c0,54.1-23,105.9-63.2,142.2c-37.6,34-62.9,79-71.8,127.6l-33.2,11.2V620c32.7-9.9,56.5-40.4,56.5-76.2
			c0-43.9-35.7-79.7-79.7-79.7s-79.7,35.7-79.7,79.7c0,35.7,23.6,66,56,76.1v187.7l-33.1-11.2c-8.5-48.5-33.5-93.4-71.1-127
			c-40.6-36.3-63.9-88.4-63.9-142.8C608.4,421,694.3,335,799.9,335z M800.3,576.6c-18.1,0-32.8-14.7-32.8-32.8
			c0-18.1,14.7-32.8,32.8-32.8c18.1,0,32.8,14.7,32.8,32.8C833.1,561.8,818.4,576.6,800.3,576.6z M641,704.3
			c22.9,20.5,39.8,46.1,49.5,74.2l-267.4-90.4l163.4-55.2C599.9,659.6,618.3,683.9,641,704.3z M565.5,483.5
			c-2.6,14-3.9,28.4-3.9,43.1c0,21.3,2.9,42.3,8.3,62.4l-214.4,72.5l-86.5-77.7L565.5,483.5z M668,927.3l-399-134.9l86.5-77.7
			l399,134.9L668,927.3z M1226.6,1007.6l-403.1,136.3V892.8l87.5,78.6c4.4,3.9,10,6,15.7,6c2.5,0,5-0.4,7.5-1.2l292.5-98.9
			L1226.6,1007.6L1226.6,1007.6z M932,927.3l-86.5-77.7l399-134.9l86.5,77.7L932,927.3z"/>
		<path id="XMLID_507_" class="st0" d="M952.6,285.2c6,0,12-2.3,16.6-6.9l24.5-24.5c36.7-36.7,79-66.8,125.7-89.4
			c11.6-5.6,16.5-19.7,10.9-31.3s-19.7-16.5-31.3-10.9c-51.4,24.9-98,58.1-138.4,98.5L936,245.1c-9.2,9.2-9.2,24,0,33.1
			C940.6,282.9,946.6,285.2,952.6,285.2z"/>
		<path id="XMLID_508_" class="st0" d="M480.7,164.4c46.7,22.7,89,52.7,125.7,89.4l24.5,24.5c4.6,4.6,10.6,6.9,16.6,6.9
			s12-2.3,16.6-6.9c9.2-9.2,9.2-24,0-33.1l-24.5-24.5c-40.4-40.4-87-73.5-138.4-98.5c-11.6-5.6-25.7-0.8-31.3,10.9
			C464.2,144.7,469.1,158.7,480.7,164.4z"/>
		<path id="XMLID_509_" class="st0" d="M800,166.7c12.9,0,23.4-10.5,23.4-23.4V23.4C823.4,10.5,812.9,0,800,0s-23.4,10.5-23.4,23.4
			v119.8C776.6,156.2,787.1,166.7,800,166.7z"/>
	</g>
</g>
</svg>
