<?xml version="1.0" encoding="utf-8"?>
<!-- Generator: Adobe Illustrator 22.0.1, SVG Export Plug-In . SVG Version: 6.00 Build 0)  -->
<svg version="1.1" id="Layer_1" xmlns="http://www.w3.org/2000/svg" xmlns:xlink="http://www.w3.org/1999/xlink" x="0px" y="0px"
	 viewBox="0 0 1600 1200" style="enable-background:new 0 0 1600 1200;" xml:space="preserve">
<style type="text/css">
	.st0{fill:#0100CF;}
</style>
<g id="XMLID_1144_">
	<g id="XMLID_677_">
		<path id="XMLID_713_" class="st0" d="M1376.6,514c-6.5,0-12.3,2.6-16.6,6.9l0,0l-202.6,202.6c-11.1-5.9-23.8-9.3-37.3-9.3
			c-13.4,0-26.1,3.4-37.2,9.3l-102-102c6-11.2,9.4-24,9.4-37.6c0-43.9-35.7-79.7-79.7-79.7s-79.7,35.7-79.7,79.7
			c0,13.1,3.2,25.5,8.8,36.4L781.1,679c-11.1-5.8-23.7-9.2-37.1-9.2c-13.5,0-26.3,3.4-37.5,9.4L551.9,524.5
			c5.3-10.6,8.2-22.6,8.2-35.2c0-43.9-35.7-79.7-79.7-79.7s-79.7,35.7-79.7,79.7c0,14.3,3.8,27.7,10.4,39.3L246.9,692.9V23.4
			c0-12.9-10.5-23.4-23.4-23.4S200,10.5,200,23.4v726c0,0,0,0,0,0v427.1c0,12.9,10.5,23.4,23.4,23.4h1153.1
			c12.9,0,23.4-10.5,23.4-23.4V537.5C1400,524.5,1389.5,514,1376.6,514z M1152.9,793.9c0,18.1-14.7,32.8-32.8,32.8
			s-32.8-14.7-32.8-32.8s14.7-32.8,32.8-32.8S1152.9,775.8,1152.9,793.9z M503.9,565.5c5.6-1.7,10.9-4,15.8-6.9l153.8,153.8
			c-5.8,11.1-9.2,23.7-9.2,37.1c0,35.8,23.7,66.1,56.3,76.2v327.5H503.9V565.5L503.9,565.5z M767.5,825.6
			c32.5-10,56.3-40.4,56.3-76.2c0-13.5-3.4-26.3-9.4-37.5l58.1-58.1c4.6,2.5,9.6,4.6,14.7,6.2v493H767.5L767.5,825.6L767.5,825.6z
			 M910.6,551.1c18.1,0,32.8,14.7,32.8,32.8s-14.7,32.8-32.8,32.8s-32.8-14.7-32.8-32.8S892.5,551.1,910.6,551.1z M776.9,749.5
			c0,18.1-14.7,32.8-32.8,32.8s-32.8-14.7-32.8-32.8s14.7-32.8,32.8-32.8S776.9,731.4,776.9,749.5z M480.5,456.5
			c18.1,0,32.8,14.7,32.8,32.8s-14.7,32.8-32.8,32.8s-32.8-14.7-32.8-32.8S462.4,456.5,480.5,456.5z M246.9,759.2l198.4-198.4
			c3.8,1.9,7.7,3.4,11.8,4.7v587.6H246.9V759.2z M934.1,1153.1v-493c4.7-1.5,9.2-3.3,13.5-5.6l102.1,102.1
			c-5.9,11.1-9.3,23.8-9.3,37.3c0,35.8,23.7,66.1,56.3,76.2V1002c0,12.9,10.5,23.4,23.4,23.4c12.9,0,23.4-10.5,23.4-23.4V870.1
			c32.5-10,56.3-40.4,56.3-76.2c0-13.4-3.4-26.1-9.3-37.2L1353.1,594v559.1L934.1,1153.1L934.1,1153.1z"/>
		<path id="XMLID_721_" class="st0" d="M1120,1064.1c-6.2,0-12.2,2.5-16.6,6.9c-4.4,4.4-6.9,10.4-6.9,16.6s2.5,12.2,6.9,16.6
			c4.4,4.4,10.4,6.9,16.6,6.9s12.2-2.5,16.6-6.9c4.4-4.4,6.9-10.4,6.9-16.6s-2.5-12.2-6.9-16.6
			C1132.3,1066.6,1126.2,1064.1,1120,1064.1z"/>
		<path id="XMLID_722_" class="st0" d="M382.9,251.3l101-101l247.4,247.4c9.2,9.2,24,9.2,33.1,0l142.3-142.3l200.7,200.7
			c4.6,4.6,10.6,6.9,16.6,6.9s12-2.3,16.6-6.9l193.8-193.8c1.5,8.7,7.9,16.2,17,18.7c2,0.5,4.1,0.8,6.1,0.8
			c10.3,0,19.8-6.9,22.6-17.4l19.1-71.4c2.2-8.1-0.1-16.7-6.1-22.6c-5.9-5.9-14.5-8.2-22.6-6.1l-71.4,19.1
			c-12.5,3.3-19.9,16.2-16.6,28.7c2.4,9.1,9.9,15.5,18.7,17l-177.3,177.3L923.3,205.7c-9.2-9.1-24-9.1-33.1,0L747.9,348L500.5,100.6
			c-9.2-9.2-24-9.2-33.1,0L349.8,218.2c-9.2,9.2-9.2,24,0,33.1C359,260.5,373.8,260.5,382.9,251.3z"/>
		<path id="XMLID_723_" class="st0" d="M311.7,312.9c6.2,0,12.2-2.5,16.6-6.9c4.4-4.4,6.9-10.4,6.9-16.6s-2.5-12.2-6.9-16.6
			s-10.4-6.9-16.6-6.9s-12.2,2.5-16.6,6.9c-4.4,4.4-6.8,10.4-6.8,16.6s2.5,12.2,6.8,16.6C299.4,310.4,305.5,312.9,311.7,312.9z"/>
	</g>
</g>
</svg>
