<?xml version="1.0" encoding="utf-8"?>
<!-- Generator: Adobe Illustrator 22.0.1, SVG Export Plug-In . SVG Version: 6.00 Build 0)  -->
<svg version="1.1" id="Layer_1" xmlns="http://www.w3.org/2000/svg" xmlns:xlink="http://www.w3.org/1999/xlink" x="0px" y="0px"
	 viewBox="0 0 1600 1200" style="enable-background:new 0 0 1600 1200;" xml:space="preserve">
<style type="text/css">
	.st0{fill:#0100CF;}
</style>
<g id="XMLID_1630_">
	<g id="XMLID_1353_">
		<path id="XMLID_1811_" class="st0" d="M1288.1,439.4h-75.6V332.8c0-12.9-10.5-23.4-23.4-23.4H996.9V23.4
			c0-12.9-10.5-23.4-23.4-23.4h-750C210.5,0,200,10.5,200,23.4v975c0,12.9,10.5,23.4,23.4,23.4h287.9c8,40.4,39.3,72.5,79.3,81.7v73
			c0,12.9,10.5,23.4,23.4,23.4h493.8c12.9,0,23.4-10.5,23.4-23.4v-73c46.5-10.7,81.3-52.3,81.3-102V955h75.6
			c61.7,0,111.9-50.2,111.9-111.9V551.2C1400,489.6,1349.8,439.4,1288.1,439.4z M1212.5,580h46.9v234.4h-46.9V580z M907.8,398.4
			c-43.9,0-79.7,35.7-79.7,79.7V557c0,23.3-18.9,42.2-42.2,42.2s-42.2-18.9-42.2-42.2V356.3h309.4v152.3c0,18.1-14.7,32.8-32.8,32.8
			s-32.8-14.7-32.8-32.8v-30.5C987.5,434.2,951.8,398.4,907.8,398.4z M246.9,46.9H950v262.5H532.8c-12.9,0-23.4,10.5-23.4,23.4V975
			H246.9V46.9z M1084.4,1153.1H637.5v-46.9h446.9L1084.4,1153.1L1084.4,1153.1z M1165.6,1001.6c0,31.9-25.9,57.8-57.8,57.8H614.1
			c-31.9,0-57.8-25.9-57.8-57.8V356.3h140.6V557c0,49.1,40,89.1,89.1,89.1s89.1-40,89.1-89.1v-78.9c0-18.1,14.7-32.8,32.8-32.8
			s32.8,14.7,32.8,32.8v30.5c0,43.9,35.7,79.7,79.7,79.7c43.9,0,79.7-35.7,79.7-79.7V356.3h65.6v106.6v93.7v281.3v93.8
			L1165.6,1001.6L1165.6,1001.6z M1353.1,843.1c0,35.8-29.2,65-65,65h-75.6v-46.9h70.3c12.9,0,23.4-10.5,23.4-23.4V556.6
			c0-12.9-10.5-23.4-23.4-23.4h-70.3v-46.9h75.6c35.8,0,65,29.2,65,65V843.1z"/>
		<path id="XMLID_1818_" class="st0" d="M666.4,140.6h202.3c12.9,0,23.4-10.5,23.4-23.4s-10.5-23.4-23.4-23.4H666.4
			c-12.9,0-23.4,10.5-23.4,23.4S653.5,140.6,666.4,140.6z"/>
		<path id="XMLID_1820_" class="st0" d="M572.7,140.6c12.9,0,23.4-10.5,23.4-23.4s-10.5-23.4-23.4-23.4h0
			c-12.9,0-23.4,10.5-23.4,23.4S559.7,140.6,572.7,140.6z"/>
		<path id="XMLID_1821_" class="st0" d="M572.7,253.1h296.1c12.9,0,23.4-10.5,23.4-23.4s-10.5-23.4-23.4-23.4H572.7
			c-12.9,0-23.4,10.5-23.4,23.4S559.7,253.1,572.7,253.1z"/>
		<path id="XMLID_1825_" class="st0" d="M448.4,93.8H335.9c-12.9,0-23.4,10.5-23.4,23.4v112.5c0,12.9,10.5,23.4,23.4,23.4h112.5
			c12.9,0,23.4-10.5,23.4-23.4V117.2C471.9,104.2,461.4,93.8,448.4,93.8z M425,206.3h-65.6v-65.6H425V206.3z"/>
		<path id="XMLID_1827_" class="st0" d="M664.1,671.6c-12.9,0-23.4,10.5-23.4,23.4V852c0,12.9,10.5,23.4,23.4,23.4
			s23.4-10.5,23.4-23.4V695C687.5,682.1,677,671.6,664.1,671.6z"/>
		<path id="XMLID_1828_" class="st0" d="M664.1,916.9c-6.2,0-12.2,2.5-16.6,6.9c-4.4,4.4-6.9,10.4-6.9,16.6c0,6.2,2.5,12.2,6.9,16.6
			c4.4,4.4,10.4,6.9,16.6,6.9s12.2-2.5,16.6-6.9c4.4-4.4,6.9-10.4,6.9-16.6c0-6.2-2.5-12.2-6.9-16.6
			C676.3,919.4,670.2,916.9,664.1,916.9z"/>
	</g>
</g>
</svg>
