<svg width="93" height="73" viewBox="0 0 93 73" fill="none" xmlns="http://www.w3.org/2000/svg">
<path d="M92.4667 19.4083V60.225C92.4667 67.2817 86.7483 73 79.6917 73H12.775C9.38686 73 6.13749 71.6541 3.74171 69.2583C1.34593 66.8625 0 63.6131 0 60.225V19.4083L44.7685 44.0336C45.681 44.5349 46.7881 44.5349 47.6982 44.0336L92.4667 19.4058V19.4083ZM79.6917 5.49405e-08C83.0265 0.000309898 86.229 1.30464 88.6151 3.63437C91.0012 5.9641 92.3818 9.13452 92.4618 12.4684L46.2333 37.8967L0.00486631 12.466L0.00973379 12.247C0.146007 8.95286 1.55054 5.83898 3.92961 3.5565C6.30869 1.27402 9.47808 -0.000305512 12.775 5.49405e-08H79.6917Z" fill="white"/>
</svg>
