<svg width="91" height="90" viewBox="0 0 91 90" fill="none" xmlns="http://www.w3.org/2000/svg">
<path d="M0 43.6513C0 18.5687 19.6487 0 45.0013 0C70.3539 0 90.0026 18.5687 90.0026 43.6513C90.0026 68.7339 70.3539 87.3025 45.0013 87.3025C40.4449 87.3025 36.0798 86.7006 31.9734 85.5756C31.1772 85.354 30.3289 85.4136 29.5715 85.7443L20.6387 89.6932C20.0992 89.9312 19.5095 90.033 18.9215 89.9897C18.3334 89.9464 17.765 89.7594 17.2661 89.4449C16.7673 89.1305 16.3533 88.6984 16.0606 88.1865C15.7679 87.6747 15.6053 87.0987 15.5873 86.5094L15.3398 78.5048C15.3227 78.0175 15.2067 77.5389 14.9988 77.0979C14.7909 76.6569 14.4954 76.2629 14.1304 75.9397C5.37766 68.1095 0 56.7691 0 43.6513ZM31.1971 35.4441L17.978 56.4147C16.7124 58.4286 19.1818 60.6955 21.0775 59.2611L35.281 48.4833C35.7482 48.1285 36.3182 47.9354 36.9048 47.9334C37.4914 47.9314 38.0628 48.1204 38.5324 48.472L49.0458 56.3585C49.7917 56.9179 50.6455 57.3167 51.5532 57.5297C52.461 57.7428 53.403 57.7654 54.3199 57.5963C55.2369 57.4272 56.1088 57.07 56.8808 56.5471C57.6528 56.0243 58.3081 55.3471 58.8054 54.5584L72.0246 33.5878C73.2959 31.574 70.8208 29.3071 68.9251 30.7415L54.7216 41.5193C54.2544 41.8741 53.6844 42.0672 53.0978 42.0692C52.5112 42.0712 51.9398 41.8821 51.4702 41.5306L40.9568 33.6385C40.2109 33.0791 39.3571 32.6803 38.4494 32.4672C37.5416 32.2542 36.5996 32.2315 35.6827 32.4006C34.7657 32.5698 33.8938 32.927 33.1218 33.4499C32.3498 33.9727 31.6945 34.6498 31.1971 35.4385V35.4441Z" fill="white"/>
</svg>
