<svg width="55" height="55" viewBox="0 0 55 55" fill="none" xmlns="http://www.w3.org/2000/svg">
<path d="M53.9896 43.0829L41.4395 31.6721C40.8462 31.1329 40.0667 30.8453 39.2654 30.8701C38.4641 30.8948 37.7038 31.23 37.145 31.8048L29.7569 39.4028C27.9786 39.0632 24.4034 37.9486 20.7233 34.2778C17.0431 30.5946 15.9286 27.0102 15.5982 25.2442L23.1901 17.8531C23.7656 17.2947 24.1013 16.5343 24.126 15.7328C24.1508 14.9313 23.8628 14.1515 23.3228 13.5586L11.915 1.0117C11.3749 0.416942 10.6241 0.0561783 9.82225 0.00602584C9.02038 -0.0441266 8.23054 0.220283 7.62049 0.743099L0.920906 6.48864C0.387135 7.02434 0.0685442 7.73731 0.0255694 8.49232C-0.020741 9.26415 -0.903727 27.5474 13.2735 41.7306C25.6414 54.0954 41.1338 55 45.4006 55C46.0242 55 46.407 54.9815 46.5089 54.9753C47.2638 54.933 47.9764 54.613 48.5095 54.0769L54.252 47.3743C54.7769 46.7662 55.0433 45.977 54.9943 45.1752C54.9452 44.3734 54.5847 43.6225 53.9896 43.0829V43.0829Z" fill="white"/>
</svg>
