<svg width="456" height="456" viewBox="0 0 456 456" fill="none" xmlns="http://www.w3.org/2000/svg">
<path d="M228 0C102.091 0 0 102.091 0 228C0 353.909 102.091 456 228 456C353.909 456 456 353.909 456 228C456 102.091 353.909 0 228 0ZM301.337 231.512L190.187 312.38C189.577 312.818 188.859 313.08 188.111 313.136C187.362 313.192 186.613 313.041 185.945 312.699C185.277 312.357 184.716 311.838 184.324 311.198C183.932 310.558 183.724 309.823 183.723 309.072V147.437C183.721 146.685 183.927 145.947 184.318 145.305C184.709 144.663 185.27 144.142 185.94 143.799C186.609 143.456 187.36 143.306 188.11 143.364C188.859 143.422 189.578 143.687 190.187 144.129L301.337 224.946C301.862 225.318 302.29 225.81 302.586 226.381C302.881 226.952 303.036 227.586 303.036 228.229C303.036 228.872 302.881 229.506 302.586 230.077C302.29 230.648 301.862 231.14 301.337 231.512V231.512Z" fill="black"/>
</svg>
