{
  "accessors": [
    {
      "bufferView": 2,
      "componentType": 5126,
      "count": 5016,
      "max": [
        21.947010040283203,
        59.635974884033203,
        56.687885284423828
      ],
      "min": [
        -21.947010040283203,
        -4.8187742233276367,
        -54.0506591796875
      ],
      "type": "VEC3"
    },
    {
      "bufferView": 2,
      "byteOffset": 60192,
      "componentType": 5126,
      "count": 5016,
      "max": [
        1,
        1,
        1
      ],
      "min": [
        -1,
        -1,
        -0.99999988079071045
      ],
      "type": "VEC3"
    },
    {
      "bufferView": 3,
      "componentType": 5126,
      "count": 5016,
      "max": [
        1,
        1,
        1,
        1
      ],
      "min": [
        -1,
        -1,
        -1,
        -1
      ],
      "type": "VEC4"
    },
    {
      "bufferView": 1,
      "componentType": 5126,
      "count": 5016,
      "max": [
        0.99184393882751465,
        0.9936668872833252
      ],
      "min": [
        0.0064594745635986328,
        0.0042213797569274902
      ],
      "type": "VEC2"
    },
    {
      "bufferView": 1,
      "byteOffset": 40128,
      "componentType": 5126,
      "count": 5016,
      "max": [
        0.99184393882751465,
        0.9936668872833252
      ],
      "min": [
        0.0064594745635986328,
        0.0042213797569274902
      ],
      "type": "VEC2"
    },
    {
      "bufferView": 1,
      "byteOffset": 80256,
      "componentType": 5126,
      "count": 5016,
      "max": [
        0.99184393882751465,
        0.9936668872833252
      ],
      "min": [
        0.0064594745635986328,
        0.0042213797569274902
      ],
      "type": "VEC2"
    },
    {
      "bufferView": 0,
      "componentType": 5125,
      "count": 17640,
      "max": [
        5015
      ],
      "min": [
        0
      ],
      "type": "SCALAR"
    },
    {
      "bufferView": 2,
      "byteOffset": 120384,
      "componentType": 5126,
      "count": 3386,
      "max": [
        17.115655899047852,
        67.674201965332031,
        55.349590301513672
      ],
      "min": [
        -16.925785064697266,
        17.91016960144043,
        -39.869667053222656
      ],
      "type": "VEC3"
    },
    {
      "bufferView": 2,
      "byteOffset": 161016,
      "componentType": 5126,
      "count": 3386,
      "max": [
        0.99999266862869263,
        1,
        1
      ],
      "min": [
        -0.99999243021011353,
        -1,
        -1
      ],
      "type": "VEC3"
    },
    {
      "bufferView": 3,
      "byteOffset": 80256,
      "componentType": 5126,
      "count": 3386,
      "max": [
        1,
        1,
        1,
        1
      ],
      "min": [
        -1,
        -1,
        -1,
        -1
      ],
      "type": "VEC4"
    },
    {
      "bufferView": 1,
      "byteOffset": 120384,
      "componentType": 5126,
      "count": 3386,
      "max": [
        0.99020898342132568,
        0.99183887243270874
      ],
      "min": [
        0.0072956085205078125,
        0.0068607926368713379
      ],
      "type": "VEC2"
    },
    {
      "bufferView": 1,
      "byteOffset": 147472,
      "componentType": 5126,
      "count": 3386,
      "max": [
        0.99020898342132568,
        0.99183887243270874
      ],
      "min": [
        0.0072956085205078125,
        0.0068607926368713379
      ],
      "type": "VEC2"
    },
    {
      "bufferView": 1,
      "byteOffset": 174560,
      "componentType": 5126,
      "count": 3386,
      "max": [
        0.99020898342132568,
        0.99183887243270874
      ],
      "min": [
        0.0072956085205078125,
        0.0068607926368713379
      ],
      "type": "VEC2"
    },
    {
      "bufferView": 0,
      "byteOffset": 70560,
      "componentType": 5125,
      "count": 11190,
      "max": [
        3385
      ],
      "min": [
        0
      ],
      "type": "SCALAR"
    }
  ],
  "asset": {
    "extras": {
      "author": "AkaIntensity (https://sketchfab.com/AkaIntensity)",
      "license": "CC-BY-4.0 (http://creativecommons.org/licenses/by/4.0/)",
      "source": "https://sketchfab.com/3d-models/cargo-ship-c95d341642c949bd85a03c97a15f81c3",
      "title": "Cargo Ship"
    },
    "generator": "Sketchfab-4.61.0",
    "version": "2.0"
  },
  "bufferViews": [
    {
      "buffer": 0,
      "byteLength": 115320,
      "byteOffset": 0,
      "name": "floatBufferViews",
      "target": 34963
    },
    {
      "buffer": 0,
      "byteLength": 201648,
      "byteOffset": 115320,
      "byteStride": 8,
      "name": "floatBufferViews",
      "target": 34962
    },
    {
      "buffer": 0,
      "byteLength": 201648,
      "byteOffset": 316968,
      "byteStride": 12,
      "name": "floatBufferViews",
      "target": 34962
    },
    {
      "buffer": 0,
      "byteLength": 134432,
      "byteOffset": 518616,
      "byteStride": 16,
      "name": "floatBufferViews",
      "target": 34962
    }
  ],
  "buffers": [
    {
      "byteLength": 653048,
      "uri": "scene.bin"
    }
  ],
  "extensionsRequired": [
    "KHR_materials_pbrSpecularGlossiness"
  ],
  "extensionsUsed": [
    "KHR_materials_pbrSpecularGlossiness"
  ],
  "images": [
    {
      "uri": "textures/material_specularGlossiness.png"
    },
    {
      "uri": "textures/material_diffuse.png"
    },
    {
      "uri": "textures/material_1_specularGlossiness.png"
    },
    {
      "uri": "textures/material_1_diffuse.png"
    }
  ],
  "materials": [
    {
      "alphaCutoff": 0,
      "alphaMode": "MASK",
      "doubleSided": true,
      "emissiveFactor": [
        0,
        0,
        0
      ],
      "extensions": {
        "KHR_materials_pbrSpecularGlossiness": {
          "diffuseFactor": [
            1,
            1,
            1,
            1
          ],
          "diffuseTexture": {
            "index": 3,
            "texCoord": 0
          },
          "glossinessFactor": 1,
          "specularFactor": [
            1,
            1,
            1
          ],
          "specularGlossinessTexture": {
            "index": 2,
            "texCoord": 0
          }
        }
      },
      "name": "material_1"
    },
    {
      "alphaCutoff": 0,
      "alphaMode": "MASK",
      "doubleSided": true,
      "emissiveFactor": [
        0,
        0,
        0
      ],
      "extensions": {
        "KHR_materials_pbrSpecularGlossiness": {
          "diffuseFactor": [
            1,
            1,
            1,
            1
          ],
          "diffuseTexture": {
            "index": 1,
            "texCoord": 0
          },
          "glossinessFactor": 1,
          "specularFactor": [
            1,
            1,
            1
          ],
          "specularGlossinessTexture": {
            "index": 0,
            "texCoord": 0
          }
        }
      },
      "name": "material"
    }
  ],
  "meshes": [
    {
      "primitives": [
        {
          "attributes": {
            "NORMAL": 1,
            "POSITION": 0,
            "TANGENT": 2,
            "TEXCOORD_0": 3,
            "TEXCOORD_1": 4,
            "TEXCOORD_2": 5
          },
          "indices": 6,
          "material": 0,
          "mode": 4
        }
      ]
    },
    {
      "primitives": [
        {
          "attributes": {
            "NORMAL": 8,
            "POSITION": 7,
            "TANGENT": 9,
            "TEXCOORD_0": 10,
            "TEXCOORD_1": 11,
            "TEXCOORD_2": 12
          },
          "indices": 13,
          "material": 1,
          "mode": 4
        }
      ]
    }
  ],
  "nodes": [
    {
      "children": [
        1
      ],
      "name": "RootNode (gltf orientation matrix)",
      "rotation": [
        -0.70710678118654746,
        -0,
        -0,
        0.70710678118654757
      ]
    },
    {
      "children": [
        2
      ],
      "name": "RootNode (model correction matrix)"
    },
    {
      "children": [
        3
      ],
      "name": "root"
    },
    {
      "children": [
        4
      ],
      "matrix": [
        1,
        0,
        0,
        0,
        0,
        2.2204460492503131e-16,
        1,
        0,
        0,
        -1,
        2.2204460492503131e-16,
        0,
        0,
        0,
        0,
        1
      ],
      "name": "GLTF_SceneRootNode"
    },
    {
      "children": [
        5
      ],
      "name": "root_0"
    },
    {
      "children": [
        6,
        8
      ],
      "matrix": [
        -1.6858742456511325e-10,
        0,
        -0.0010000001639127588,
        0,
        0,
        0.0010000000474974513,
        0,
        0,
        0.0010000001639127588,
        0,
        -1.6858742456511325e-10,
        0,
        -0.4661586582660675,
        0.075000062584877014,
        0.39105987548828125,
        1
      ],
      "name": "node_id67_1"
    },
    {
      "children": [
        7
      ],
      "matrix": [
        7.0627551078796387,
        0,
        0,
        0,
        0,
        7.0627551078796387,
        0,
        0,
        0,
        0,
        7.0627551078796387,
        0,
        0.00023012221208773553,
        -221.96624755859375,
        381.74658203125,
        1
      ],
      "name": "node_id63_2"
    },
    {
      "mesh": 0,
      "name": ""
    },
    {
      "children": [
        9
      ],
      "matrix": [
        7.0627551078796387,
        0,
        0,
        0,
        0,
        7.0627551078796387,
        0,
        0,
        0,
        0,
        7.0627551078796387,
        0,
        0.00023012221208773553,
        -221.96624755859375,
        381.74658203125,
        1
      ],
      "name": "node_id65_3"
    },
    {
      "mesh": 1,
      "name": ""
    }
  ],
  "samplers": [
    {
      "magFilter": 9729,
      "minFilter": 9987,
      "wrapS": 10497,
      "wrapT": 10497
    }
  ],
  "scene": 0,
  "scenes": [
    {
      "name": "OSG_Scene",
      "nodes": [
        0
      ]
    }
  ],
  "textures": [
    {
      "sampler": 0,
      "source": 0
    },
    {
      "sampler": 0,
      "source": 1
    },
    {
      "sampler": 0,
      "source": 2
    },
    {
      "sampler": 0,
      "source": 3
    }
  ]
}

